<svg width="140" height="57" viewBox="0 0 140 57" fill="none" xmlns="http://www.w3.org/2000/svg">
<path fill-rule="evenodd" clip-rule="evenodd" d="M38.5698 17.1387L27.0603 39.6387H16.2495L21.0663 30.3137H20.8501C16.8764 35.4722 10.9474 38.868 2.49951 39.6387V30.4428C2.49951 30.4428 7.90382 30.1235 11.0809 26.7834H2.49951V17.1388H12.144V25.0713L12.3605 25.0704L16.3016 17.1388H23.5955V25.021L23.8119 25.0207L27.9009 17.1387H38.5698ZM101.333 37.1552H104.439V19.3262H101.333V37.1552ZM84.2087 36.9731C84.8837 37.2537 85.5702 37.3941 86.2681 37.3941C87.4209 37.3941 88.4526 37.1135 89.3628 36.5521C90.2729 35.9909 90.9784 35.2172 91.4791 34.2311C91.9797 33.2375 92.2299 32.111 92.2299 30.8519C92.2299 29.5927 91.9721 28.4664 91.4563 27.4727C90.9405 26.4791 90.2237 25.7092 89.3058 25.163C88.3881 24.6093 87.3451 24.3363 86.1769 24.3438C85.4337 24.3438 84.7207 24.488 84.038 24.7762C83.3553 25.0644 82.7865 25.474 82.3313 26.005C82.2962 26.0454 82.2621 26.0862 82.229 26.1275V19.3376H79.1115V37.1552H82.2062L82.2 35.4907C82.28 35.5889 82.3656 35.6847 82.4565 35.7785C82.9495 36.2867 83.5336 36.6849 84.2087 36.9731ZM87.3944 34.0946C86.8862 34.4056 86.3059 34.5611 85.6536 34.5611C85.0088 34.5611 84.4172 34.4017 83.8787 34.0832C83.3401 33.757 82.9116 33.3134 82.5929 32.752C82.2819 32.1907 82.1264 31.5535 82.1264 30.8405C82.1189 30.1275 82.2706 29.4904 82.5816 28.9291C82.9002 28.3602 83.3287 27.9202 83.8673 27.6093C84.4058 27.2907 85.0013 27.1352 85.6536 27.1428C86.3059 27.1352 86.8862 27.2869 87.3944 27.5979C87.9102 27.9013 88.3046 28.3374 88.5777 28.9063C88.8583 29.4676 88.9987 30.1124 88.9987 30.8405C88.9987 31.5687 88.8583 32.2135 88.5777 32.7747C88.3046 33.3361 87.9102 33.776 87.3944 34.0946ZM43.0696 20.4071H46.6195L49.795 32.0041L53.1731 20.4071H56.1313L59.795 31.7713L62.8442 20.4071H66.0982L61.2968 37.1552H58.2362L54.5107 26.0532L51.091 37.1552H47.9962L43.0696 20.4071ZM71.3408 37.4509C70.1043 37.4586 68.9893 37.1854 67.9957 36.6318C67.0095 36.0704 66.2322 35.2929 65.6632 34.2993C65.1019 33.3057 64.8213 32.1717 64.8213 30.8973C64.8213 29.6609 65.1095 28.5422 65.686 27.5409C66.2624 26.5397 67.0437 25.7584 68.0298 25.1971C69.0159 24.6358 70.1157 24.3552 71.3293 24.3552C72.6947 24.3552 73.8893 24.6586 74.9133 25.2654C75.9449 25.8722 76.7148 26.7331 77.223 27.8481C77.7388 28.9556 77.9247 30.2261 77.7805 31.6597H68.0347C68.0619 32.2308 68.2044 32.7504 68.4622 33.2184C68.7504 33.7342 69.1524 34.1362 69.6682 34.4244C70.184 34.7127 70.7604 34.8568 71.3977 34.8568C71.883 34.8492 72.3344 34.7658 72.7515 34.6066C73.1688 34.4397 73.5214 34.2159 73.8097 33.9352C74.1055 33.6546 74.3142 33.3361 74.4355 32.9796H77.6895C77.4923 33.8518 77.0979 34.6293 76.5063 35.3119C75.9145 35.9871 75.1713 36.5142 74.2762 36.8934C73.3812 37.2727 72.4027 37.4586 71.3408 37.4509ZM68.4735 28.5308C68.2918 28.8478 68.1658 29.1891 68.0957 29.5548H74.556C74.5092 29.0928 74.3665 28.6718 74.1283 28.2919C73.8552 27.8443 73.4835 27.4992 73.0133 27.2565C72.543 27.0062 72.012 26.881 71.4204 26.881C70.7908 26.881 70.2182 27.0251 69.7023 27.3134C69.1865 27.6016 68.7769 28.0074 68.4735 28.5308ZM94.5173 24.6169C94.5173 23.6005 94.7485 22.6978 95.2113 21.909C95.6739 21.1125 96.3225 20.4943 97.1569 20.0544C97.9988 19.6069 98.9811 19.3755 100.104 19.3604V22.1251C99.5803 22.1327 99.1328 22.2427 98.7611 22.4551C98.397 22.6599 98.1164 22.9595 97.9191 23.3539C97.7376 23.7171 97.6396 24.138 97.6253 24.6169H100.035V27.2451H97.6234V37.1552H94.5173V27.2451H92.5148V24.6169H94.5173ZM112.334 37.4281C111.068 37.4281 109.934 37.1513 108.932 36.5976C107.939 36.0363 107.157 35.2626 106.589 34.2765C106.027 33.2829 105.747 32.1565 105.747 30.8973C105.747 29.6306 106.027 28.5004 106.589 27.5067C107.157 26.5055 107.939 25.728 108.932 25.1743C109.934 24.6206 111.068 24.3437 112.334 24.3437C113.609 24.3437 114.746 24.6206 115.748 25.1743C116.756 25.728 117.542 26.5017 118.103 27.4954C118.664 28.489 118.949 29.623 118.956 30.8973C118.949 32.1565 118.664 33.2829 118.103 34.2765C117.549 35.2626 116.768 36.0363 115.759 36.5976C114.75 37.1513 113.609 37.4281 112.334 37.4281ZM112.334 34.5724C113.002 34.5724 113.593 34.4206 114.109 34.1173C114.625 33.8063 115.023 33.3739 115.304 32.8201C115.585 32.2589 115.725 31.6179 115.725 30.8973C115.725 30.1691 115.585 29.5244 115.304 28.9631C115.023 28.4018 114.625 27.9694 114.109 27.666C113.593 27.355 113.002 27.1995 112.334 27.1995C111.674 27.1995 111.087 27.355 110.571 27.666C110.063 27.9694 109.668 28.4018 109.387 28.9631C109.107 29.5244 108.97 30.1691 108.978 30.8973C108.978 31.6179 109.118 32.2589 109.399 32.8201C109.687 33.3739 110.081 33.8063 110.582 34.1173C111.09 34.4206 111.674 34.5724 112.334 34.5724ZM122.313 24.6169H118.854L122.597 37.1552H125.624L128.086 29.1469L130.743 37.1552H133.724L137.479 24.6169H134.351L132.221 32.4212L129.867 24.6169H126.841L124.499 32.5931L122.313 24.6169Z" fill="black"/>
<path d="M38.5698 17.1387L27.0603 39.6387H16.2495L21.0663 30.3137H20.8501C16.8764 35.4722 10.9474 38.868 2.49951 39.6387V30.4428C2.49951 30.4428 7.90382 30.1235 11.0809 26.7834H2.49951V17.1388H12.144V25.0713L12.3605 25.0704L16.3016 17.1388H23.5955V25.021L23.8119 25.0207L27.9009 17.1387H38.5698ZM101.333 37.1552H104.439V19.3262H101.333V37.1552ZM84.2087 36.9731C84.8837 37.2537 85.5702 37.3941 86.2681 37.3941C87.4209 37.3941 88.4526 37.1135 89.3628 36.5521C90.2729 35.9909 90.9784 35.2172 91.4791 34.2311C91.9797 33.2375 92.2299 32.111 92.2299 30.8519C92.2299 29.5927 91.9721 28.4664 91.4563 27.4727C90.9405 26.4791 90.2237 25.7092 89.3058 25.163C88.3881 24.6093 87.3451 24.3363 86.1769 24.3438C85.4337 24.3438 84.7207 24.488 84.038 24.7762C83.3553 25.0644 82.7865 25.474 82.3313 26.005C82.2962 26.0454 82.2621 26.0862 82.229 26.1275V19.3376H79.1115V37.1552H82.2062L82.2 35.4907C82.28 35.5889 82.3656 35.6847 82.4565 35.7785C82.9495 36.2867 83.5336 36.6849 84.2087 36.9731ZM87.3944 34.0946C86.8862 34.4056 86.3059 34.5611 85.6536 34.5611C85.0088 34.5611 84.4172 34.4017 83.8787 34.0832C83.3401 33.757 82.9116 33.3134 82.5929 32.752C82.2819 32.1907 82.1264 31.5535 82.1264 30.8405C82.1189 30.1275 82.2706 29.4904 82.5816 28.9291C82.9002 28.3602 83.3287 27.9202 83.8673 27.6093C84.4058 27.2907 85.0013 27.1352 85.6536 27.1428C86.3059 27.1352 86.8862 27.2869 87.3944 27.5979C87.9102 27.9013 88.3046 28.3374 88.5777 28.9063C88.8583 29.4676 88.9987 30.1124 88.9987 30.8405C88.9987 31.5687 88.8583 32.2135 88.5777 32.7747C88.3046 33.3361 87.9102 33.776 87.3944 34.0946ZM43.0696 20.4071H46.6195L49.795 32.0041L53.1731 20.4071H56.1313L59.795 31.7713L62.8442 20.4071H66.0982L61.2968 37.1552H58.2362L54.5107 26.0532L51.091 37.1552H47.9962L43.0696 20.4071ZM71.3408 37.4509C70.1043 37.4586 68.9893 37.1854 67.9957 36.6318C67.0095 36.0704 66.2322 35.2929 65.6632 34.2993C65.1019 33.3057 64.8213 32.1717 64.8213 30.8973C64.8213 29.6609 65.1095 28.5422 65.686 27.5409C66.2624 26.5397 67.0437 25.7584 68.0298 25.1971C69.0159 24.6358 70.1157 24.3552 71.3293 24.3552C72.6947 24.3552 73.8893 24.6586 74.9133 25.2654C75.9449 25.8722 76.7148 26.7331 77.223 27.8481C77.7388 28.9556 77.9247 30.2261 77.7805 31.6597H68.0347C68.0619 32.2308 68.2044 32.7504 68.4622 33.2184C68.7504 33.7342 69.1524 34.1362 69.6682 34.4244C70.184 34.7127 70.7604 34.8568 71.3977 34.8568C71.883 34.8492 72.3344 34.7658 72.7515 34.6066C73.1688 34.4397 73.5214 34.2159 73.8097 33.9352C74.1055 33.6546 74.3142 33.3361 74.4355 32.9796H77.6895C77.4923 33.8518 77.0979 34.6293 76.5063 35.3119C75.9145 35.9871 75.1713 36.5142 74.2762 36.8934C73.3812 37.2727 72.4027 37.4586 71.3408 37.4509ZM68.4735 28.5308C68.2918 28.8478 68.1658 29.1891 68.0957 29.5548H74.556C74.5092 29.0928 74.3665 28.6718 74.1283 28.2919C73.8552 27.8443 73.4835 27.4992 73.0133 27.2565C72.543 27.0062 72.012 26.881 71.4204 26.881C70.7908 26.881 70.2182 27.0251 69.7023 27.3134C69.1865 27.6016 68.7769 28.0074 68.4735 28.5308ZM94.5173 24.6169C94.5173 23.6005 94.7485 22.6978 95.2113 21.909C95.6739 21.1125 96.3225 20.4943 97.1569 20.0544C97.9988 19.6069 98.9811 19.3755 100.104 19.3604V22.1251C99.5803 22.1327 99.1328 22.2427 98.7611 22.4551C98.397 22.6599 98.1164 22.9595 97.9191 23.3539C97.7376 23.7171 97.6396 24.138 97.6253 24.6169H100.035V27.2451H97.6234V37.1552H94.5173V27.2451H92.5148V24.6169H94.5173ZM112.334 37.4281C111.068 37.4281 109.934 37.1513 108.932 36.5976C107.939 36.0363 107.157 35.2626 106.589 34.2765C106.027 33.2829 105.747 32.1565 105.747 30.8973C105.747 29.6306 106.027 28.5004 106.589 27.5067C107.157 26.5055 107.939 25.728 108.932 25.1743C109.934 24.6206 111.068 24.3437 112.334 24.3437C113.609 24.3437 114.746 24.6206 115.748 25.1743C116.756 25.728 117.542 26.5017 118.103 27.4954C118.664 28.489 118.949 29.623 118.956 30.8973C118.949 32.1565 118.664 33.2829 118.103 34.2765C117.549 35.2626 116.768 36.0363 115.759 36.5976C114.75 37.1513 113.609 37.4281 112.334 37.4281ZM112.334 34.5724C113.002 34.5724 113.593 34.4206 114.109 34.1173C114.625 33.8063 115.023 33.3739 115.304 32.8201C115.585 32.2589 115.725 31.6179 115.725 30.8973C115.725 30.1691 115.585 29.5244 115.304 28.9631C115.023 28.4018 114.625 27.9694 114.109 27.666C113.593 27.355 113.002 27.1995 112.334 27.1995C111.674 27.1995 111.087 27.355 110.571 27.666C110.063 27.9694 109.668 28.4018 109.387 28.9631C109.107 29.5244 108.97 30.1691 108.978 30.8973C108.978 31.6179 109.118 32.2589 109.399 32.8201C109.687 33.3739 110.081 33.8063 110.582 34.1173C111.09 34.4206 111.674 34.5724 112.334 34.5724ZM122.313 24.6169H118.854L122.597 37.1552H125.624L128.086 29.1469L130.743 37.1552H133.724L137.479 24.6169H134.351L132.221 32.4212L129.867 24.6169H126.841L124.499 32.5931L122.313 24.6169Z" fill="black"/>
<path fill-rule="evenodd" clip-rule="evenodd" d="M38.5698 17.1387L27.0603 39.6387H16.2495L21.0663 30.3137H20.8501C16.8764 35.4722 10.9474 38.868 2.49951 39.6387V30.4428C2.49951 30.4428 7.90382 30.1235 11.0809 26.7834H2.49951V17.1388H12.144V25.0713L12.3605 25.0704L16.3016 17.1388H23.5955V25.021L23.8119 25.0207L27.9009 17.1387H38.5698ZM101.333 37.1552H104.439V19.3262H101.333V37.1552ZM84.2087 36.9731C84.8837 37.2537 85.5702 37.3941 86.2681 37.3941C87.4209 37.3941 88.4526 37.1135 89.3628 36.5521C90.2729 35.9909 90.9784 35.2172 91.4791 34.2311C91.9797 33.2375 92.2299 32.111 92.2299 30.8519C92.2299 29.5927 91.9721 28.4664 91.4563 27.4727C90.9405 26.4791 90.2237 25.7092 89.3058 25.163C88.3881 24.6093 87.3451 24.3363 86.1769 24.3438C85.4337 24.3438 84.7207 24.488 84.038 24.7762C83.3553 25.0644 82.7865 25.474 82.3313 26.005C82.2962 26.0454 82.2621 26.0862 82.229 26.1275V19.3376H79.1115V37.1552H82.2062L82.2 35.4907C82.28 35.5889 82.3656 35.6847 82.4565 35.7785C82.9495 36.2867 83.5336 36.6849 84.2087 36.9731ZM87.3944 34.0946C86.8862 34.4056 86.3059 34.5611 85.6536 34.5611C85.0088 34.5611 84.4172 34.4017 83.8787 34.0832C83.3401 33.757 82.9116 33.3134 82.5929 32.752C82.2819 32.1907 82.1264 31.5535 82.1264 30.8405C82.1189 30.1275 82.2706 29.4904 82.5816 28.9291C82.9002 28.3602 83.3287 27.9202 83.8673 27.6093C84.4058 27.2907 85.0013 27.1352 85.6536 27.1428C86.3059 27.1352 86.8862 27.2869 87.3944 27.5979C87.9102 27.9013 88.3046 28.3374 88.5777 28.9063C88.8583 29.4676 88.9987 30.1124 88.9987 30.8405C88.9987 31.5687 88.8583 32.2135 88.5777 32.7747C88.3046 33.3361 87.9102 33.776 87.3944 34.0946ZM43.0696 20.4071H46.6195L49.795 32.0041L53.1731 20.4071H56.1313L59.795 31.7713L62.8442 20.4071H66.0982L61.2968 37.1552H58.2362L54.5107 26.0532L51.091 37.1552H47.9962L43.0696 20.4071ZM71.3408 37.4509C70.1043 37.4586 68.9893 37.1854 67.9957 36.6318C67.0095 36.0704 66.2322 35.2929 65.6632 34.2993C65.1019 33.3057 64.8213 32.1717 64.8213 30.8973C64.8213 29.6609 65.1095 28.5422 65.686 27.5409C66.2624 26.5397 67.0437 25.7584 68.0298 25.1971C69.0159 24.6358 70.1157 24.3552 71.3293 24.3552C72.6947 24.3552 73.8893 24.6586 74.9133 25.2654C75.9449 25.8722 76.7148 26.7331 77.223 27.8481C77.7388 28.9556 77.9247 30.2261 77.7805 31.6597H68.0347C68.0619 32.2308 68.2044 32.7504 68.4622 33.2184C68.7504 33.7342 69.1524 34.1362 69.6682 34.4244C70.184 34.7127 70.7604 34.8568 71.3977 34.8568C71.883 34.8492 72.3344 34.7658 72.7515 34.6066C73.1688 34.4397 73.5214 34.2159 73.8097 33.9352C74.1055 33.6546 74.3142 33.3361 74.4355 32.9796H77.6895C77.4923 33.8518 77.0979 34.6293 76.5063 35.3119C75.9145 35.9871 75.1713 36.5142 74.2762 36.8934C73.3812 37.2727 72.4027 37.4586 71.3408 37.4509ZM68.4735 28.5308C68.2918 28.8478 68.1658 29.1891 68.0957 29.5548H74.556C74.5092 29.0928 74.3665 28.6718 74.1283 28.2919C73.8552 27.8443 73.4835 27.4992 73.0133 27.2565C72.543 27.0062 72.012 26.881 71.4204 26.881C70.7908 26.881 70.2182 27.0251 69.7023 27.3134C69.1865 27.6016 68.7769 28.0074 68.4735 28.5308ZM94.5173 24.6169C94.5173 23.6005 94.7485 22.6978 95.2113 21.909C95.6739 21.1125 96.3225 20.4943 97.1569 20.0544C97.9988 19.6069 98.9811 19.3755 100.104 19.3604V22.1251C99.5803 22.1327 99.1328 22.2427 98.7611 22.4551C98.397 22.6599 98.1164 22.9595 97.9191 23.3539C97.7376 23.7171 97.6396 24.138 97.6253 24.6169H100.035V27.2451H97.6234V37.1552H94.5173V27.2451H92.5148V24.6169H94.5173ZM112.334 37.4281C111.068 37.4281 109.934 37.1513 108.932 36.5976C107.939 36.0363 107.157 35.2626 106.589 34.2765C106.027 33.2829 105.747 32.1565 105.747 30.8973C105.747 29.6306 106.027 28.5004 106.589 27.5067C107.157 26.5055 107.939 25.728 108.932 25.1743C109.934 24.6206 111.068 24.3437 112.334 24.3437C113.609 24.3437 114.746 24.6206 115.748 25.1743C116.756 25.728 117.542 26.5017 118.103 27.4954C118.664 28.489 118.949 29.623 118.956 30.8973C118.949 32.1565 118.664 33.2829 118.103 34.2765C117.549 35.2626 116.768 36.0363 115.759 36.5976C114.75 37.1513 113.609 37.4281 112.334 37.4281ZM112.334 34.5724C113.002 34.5724 113.593 34.4206 114.109 34.1173C114.625 33.8063 115.023 33.3739 115.304 32.8201C115.585 32.2589 115.725 31.6179 115.725 30.8973C115.725 30.1691 115.585 29.5244 115.304 28.9631C115.023 28.4018 114.625 27.9694 114.109 27.666C113.593 27.355 113.002 27.1995 112.334 27.1995C111.674 27.1995 111.087 27.355 110.571 27.666C110.063 27.9694 109.668 28.4018 109.387 28.9631C109.107 29.5244 108.97 30.1691 108.978 30.8973C108.978 31.6179 109.118 32.2589 109.399 32.8201C109.687 33.3739 110.081 33.8063 110.582 34.1173C111.09 34.4206 111.674 34.5724 112.334 34.5724ZM122.313 24.6169H118.854L122.597 37.1552H125.624L128.086 29.1469L130.743 37.1552H133.724L137.479 24.6169H134.351L132.221 32.4212L129.867 24.6169H126.841L124.499 32.5931L122.313 24.6169Z" fill="black"/>
<path d="M38.5698 17.1387L27.0603 39.6387H16.2495L21.0663 30.3137H20.8501C16.8764 35.4722 10.9474 38.868 2.49951 39.6387V30.4428C2.49951 30.4428 7.90382 30.1235 11.0809 26.7834H2.49951V17.1388H12.144V25.0713L12.3605 25.0704L16.3016 17.1388H23.5955V25.021L23.8119 25.0207L27.9009 17.1387H38.5698ZM101.333 37.1552H104.439V19.3262H101.333V37.1552ZM84.2087 36.9731C84.8837 37.2537 85.5702 37.3941 86.2681 37.3941C87.4209 37.3941 88.4526 37.1135 89.3628 36.5521C90.2729 35.9909 90.9784 35.2172 91.4791 34.2311C91.9797 33.2375 92.2299 32.111 92.2299 30.8519C92.2299 29.5927 91.9721 28.4664 91.4563 27.4727C90.9405 26.4791 90.2237 25.7092 89.3058 25.163C88.3881 24.6093 87.3451 24.3363 86.1769 24.3438C85.4337 24.3438 84.7207 24.488 84.038 24.7762C83.3553 25.0644 82.7865 25.474 82.3313 26.005C82.2962 26.0454 82.2621 26.0862 82.229 26.1275V19.3376H79.1115V37.1552H82.2062L82.2 35.4907C82.28 35.5889 82.3656 35.6847 82.4565 35.7785C82.9495 36.2867 83.5336 36.6849 84.2087 36.9731ZM87.3944 34.0946C86.8862 34.4056 86.3059 34.5611 85.6536 34.5611C85.0088 34.5611 84.4172 34.4017 83.8787 34.0832C83.3401 33.757 82.9116 33.3134 82.5929 32.752C82.2819 32.1907 82.1264 31.5535 82.1264 30.8405C82.1189 30.1275 82.2706 29.4904 82.5816 28.9291C82.9002 28.3602 83.3287 27.9202 83.8673 27.6093C84.4058 27.2907 85.0013 27.1352 85.6536 27.1428C86.3059 27.1352 86.8862 27.2869 87.3944 27.5979C87.9102 27.9013 88.3046 28.3374 88.5777 28.9063C88.8583 29.4676 88.9987 30.1124 88.9987 30.8405C88.9987 31.5687 88.8583 32.2135 88.5777 32.7747C88.3046 33.3361 87.9102 33.776 87.3944 34.0946ZM43.0696 20.4071H46.6195L49.795 32.0041L53.1731 20.4071H56.1313L59.795 31.7713L62.8442 20.4071H66.0982L61.2968 37.1552H58.2362L54.5107 26.0532L51.091 37.1552H47.9962L43.0696 20.4071ZM71.3408 37.4509C70.1043 37.4586 68.9893 37.1854 67.9957 36.6318C67.0095 36.0704 66.2322 35.2929 65.6632 34.2993C65.1019 33.3057 64.8213 32.1717 64.8213 30.8973C64.8213 29.6609 65.1095 28.5422 65.686 27.5409C66.2624 26.5397 67.0437 25.7584 68.0298 25.1971C69.0159 24.6358 70.1157 24.3552 71.3293 24.3552C72.6947 24.3552 73.8893 24.6586 74.9133 25.2654C75.9449 25.8722 76.7148 26.7331 77.223 27.8481C77.7388 28.9556 77.9247 30.2261 77.7805 31.6597H68.0347C68.0619 32.2308 68.2044 32.7504 68.4622 33.2184C68.7504 33.7342 69.1524 34.1362 69.6682 34.4244C70.184 34.7127 70.7604 34.8568 71.3977 34.8568C71.883 34.8492 72.3344 34.7658 72.7515 34.6066C73.1688 34.4397 73.5214 34.2159 73.8097 33.9352C74.1055 33.6546 74.3142 33.3361 74.4355 32.9796H77.6895C77.4923 33.8518 77.0979 34.6293 76.5063 35.3119C75.9145 35.9871 75.1713 36.5142 74.2762 36.8934C73.3812 37.2727 72.4027 37.4586 71.3408 37.4509ZM68.4735 28.5308C68.2918 28.8478 68.1658 29.1891 68.0957 29.5548H74.556C74.5092 29.0928 74.3665 28.6718 74.1283 28.2919C73.8552 27.8443 73.4835 27.4992 73.0133 27.2565C72.543 27.0062 72.012 26.881 71.4204 26.881C70.7908 26.881 70.2182 27.0251 69.7023 27.3134C69.1865 27.6016 68.7769 28.0074 68.4735 28.5308ZM94.5173 24.6169C94.5173 23.6005 94.7485 22.6978 95.2113 21.909C95.6739 21.1125 96.3225 20.4943 97.1569 20.0544C97.9988 19.6069 98.9811 19.3755 100.104 19.3604V22.1251C99.5803 22.1327 99.1328 22.2427 98.7611 22.4551C98.397 22.6599 98.1164 22.9595 97.9191 23.3539C97.7376 23.7171 97.6396 24.138 97.6253 24.6169H100.035V27.2451H97.6234V37.1552H94.5173V27.2451H92.5148V24.6169H94.5173ZM112.334 37.4281C111.068 37.4281 109.934 37.1513 108.932 36.5976C107.939 36.0363 107.157 35.2626 106.589 34.2765C106.027 33.2829 105.747 32.1565 105.747 30.8973C105.747 29.6306 106.027 28.5004 106.589 27.5067C107.157 26.5055 107.939 25.728 108.932 25.1743C109.934 24.6206 111.068 24.3437 112.334 24.3437C113.609 24.3437 114.746 24.6206 115.748 25.1743C116.756 25.728 117.542 26.5017 118.103 27.4954C118.664 28.489 118.949 29.623 118.956 30.8973C118.949 32.1565 118.664 33.2829 118.103 34.2765C117.549 35.2626 116.768 36.0363 115.759 36.5976C114.75 37.1513 113.609 37.4281 112.334 37.4281ZM112.334 34.5724C113.002 34.5724 113.593 34.4206 114.109 34.1173C114.625 33.8063 115.023 33.3739 115.304 32.8201C115.585 32.2589 115.725 31.6179 115.725 30.8973C115.725 30.1691 115.585 29.5244 115.304 28.9631C115.023 28.4018 114.625 27.9694 114.109 27.666C113.593 27.355 113.002 27.1995 112.334 27.1995C111.674 27.1995 111.087 27.355 110.571 27.666C110.063 27.9694 109.668 28.4018 109.387 28.9631C109.107 29.5244 108.97 30.1691 108.978 30.8973C108.978 31.6179 109.118 32.2589 109.399 32.8201C109.687 33.3739 110.081 33.8063 110.582 34.1173C111.09 34.4206 111.674 34.5724 112.334 34.5724ZM122.313 24.6169H118.854L122.597 37.1552H125.624L128.086 29.1469L130.743 37.1552H133.724L137.479 24.6169H134.351L132.221 32.4212L129.867 24.6169H126.841L124.499 32.5931L122.313 24.6169Z" fill="black"/>
<path fill-rule="evenodd" clip-rule="evenodd" d="M38.5698 17.1387L27.0603 39.6387H16.2495L21.0663 30.3137H20.8501C16.8764 35.4722 10.9474 38.868 2.49951 39.6387V30.4428C2.49951 30.4428 7.90382 30.1235 11.0809 26.7834H2.49951V17.1388H12.144V25.0713L12.3605 25.0704L16.3016 17.1388H23.5955V25.021L23.8119 25.0207L27.9009 17.1387H38.5698ZM101.333 37.1552H104.439V19.3262H101.333V37.1552ZM84.2087 36.9731C84.8837 37.2537 85.5702 37.3941 86.2681 37.3941C87.4209 37.3941 88.4526 37.1135 89.3628 36.5521C90.2729 35.9909 90.9784 35.2172 91.4791 34.2311C91.9797 33.2375 92.2299 32.111 92.2299 30.8519C92.2299 29.5927 91.9721 28.4664 91.4563 27.4727C90.9405 26.4791 90.2237 25.7092 89.3058 25.163C88.3881 24.6093 87.3451 24.3363 86.1769 24.3438C85.4337 24.3438 84.7207 24.488 84.038 24.7762C83.3553 25.0644 82.7865 25.474 82.3313 26.005C82.2962 26.0454 82.2621 26.0862 82.229 26.1275V19.3376H79.1115V37.1552H82.2062L82.2 35.4907C82.28 35.5889 82.3656 35.6847 82.4565 35.7785C82.9495 36.2867 83.5336 36.6849 84.2087 36.9731ZM87.3944 34.0946C86.8862 34.4056 86.3059 34.5611 85.6536 34.5611C85.0088 34.5611 84.4172 34.4017 83.8787 34.0832C83.3401 33.757 82.9116 33.3134 82.5929 32.752C82.2819 32.1907 82.1264 31.5535 82.1264 30.8405C82.1189 30.1275 82.2706 29.4904 82.5816 28.9291C82.9002 28.3602 83.3287 27.9202 83.8673 27.6093C84.4058 27.2907 85.0013 27.1352 85.6536 27.1428C86.3059 27.1352 86.8862 27.2869 87.3944 27.5979C87.9102 27.9013 88.3046 28.3374 88.5777 28.9063C88.8583 29.4676 88.9987 30.1124 88.9987 30.8405C88.9987 31.5687 88.8583 32.2135 88.5777 32.7747C88.3046 33.3361 87.9102 33.776 87.3944 34.0946ZM43.0696 20.4071H46.6195L49.795 32.0041L53.1731 20.4071H56.1313L59.795 31.7713L62.8442 20.4071H66.0982L61.2968 37.1552H58.2362L54.5107 26.0532L51.091 37.1552H47.9962L43.0696 20.4071ZM71.3408 37.4509C70.1043 37.4586 68.9893 37.1854 67.9957 36.6318C67.0095 36.0704 66.2322 35.2929 65.6632 34.2993C65.1019 33.3057 64.8213 32.1717 64.8213 30.8973C64.8213 29.6609 65.1095 28.5422 65.686 27.5409C66.2624 26.5397 67.0437 25.7584 68.0298 25.1971C69.0159 24.6358 70.1157 24.3552 71.3293 24.3552C72.6947 24.3552 73.8893 24.6586 74.9133 25.2654C75.9449 25.8722 76.7148 26.7331 77.223 27.8481C77.7388 28.9556 77.9247 30.2261 77.7805 31.6597H68.0347C68.0619 32.2308 68.2044 32.7504 68.4622 33.2184C68.7504 33.7342 69.1524 34.1362 69.6682 34.4244C70.184 34.7127 70.7604 34.8568 71.3977 34.8568C71.883 34.8492 72.3344 34.7658 72.7515 34.6066C73.1688 34.4397 73.5214 34.2159 73.8097 33.9352C74.1055 33.6546 74.3142 33.3361 74.4355 32.9796H77.6895C77.4923 33.8518 77.0979 34.6293 76.5063 35.3119C75.9145 35.9871 75.1713 36.5142 74.2762 36.8934C73.3812 37.2727 72.4027 37.4586 71.3408 37.4509ZM68.4735 28.5308C68.2918 28.8478 68.1658 29.1891 68.0957 29.5548H74.556C74.5092 29.0928 74.3665 28.6718 74.1283 28.2919C73.8552 27.8443 73.4835 27.4992 73.0133 27.2565C72.543 27.0062 72.012 26.881 71.4204 26.881C70.7908 26.881 70.2182 27.0251 69.7023 27.3134C69.1865 27.6016 68.7769 28.0074 68.4735 28.5308ZM94.5173 24.6169C94.5173 23.6005 94.7485 22.6978 95.2113 21.909C95.6739 21.1125 96.3225 20.4943 97.1569 20.0544C97.9988 19.6069 98.9811 19.3755 100.104 19.3604V22.1251C99.5803 22.1327 99.1328 22.2427 98.7611 22.4551C98.397 22.6599 98.1164 22.9595 97.9191 23.3539C97.7376 23.7171 97.6396 24.138 97.6253 24.6169H100.035V27.2451H97.6234V37.1552H94.5173V27.2451H92.5148V24.6169H94.5173ZM112.334 37.4281C111.068 37.4281 109.934 37.1513 108.932 36.5976C107.939 36.0363 107.157 35.2626 106.589 34.2765C106.027 33.2829 105.747 32.1565 105.747 30.8973C105.747 29.6306 106.027 28.5004 106.589 27.5067C107.157 26.5055 107.939 25.728 108.932 25.1743C109.934 24.6206 111.068 24.3437 112.334 24.3437C113.609 24.3437 114.746 24.6206 115.748 25.1743C116.756 25.728 117.542 26.5017 118.103 27.4954C118.664 28.489 118.949 29.623 118.956 30.8973C118.949 32.1565 118.664 33.2829 118.103 34.2765C117.549 35.2626 116.768 36.0363 115.759 36.5976C114.75 37.1513 113.609 37.4281 112.334 37.4281ZM112.334 34.5724C113.002 34.5724 113.593 34.4206 114.109 34.1173C114.625 33.8063 115.023 33.3739 115.304 32.8201C115.585 32.2589 115.725 31.6179 115.725 30.8973C115.725 30.1691 115.585 29.5244 115.304 28.9631C115.023 28.4018 114.625 27.9694 114.109 27.666C113.593 27.355 113.002 27.1995 112.334 27.1995C111.674 27.1995 111.087 27.355 110.571 27.666C110.063 27.9694 109.668 28.4018 109.387 28.9631C109.107 29.5244 108.97 30.1691 108.978 30.8973C108.978 31.6179 109.118 32.2589 109.399 32.8201C109.687 33.3739 110.081 33.8063 110.582 34.1173C111.09 34.4206 111.674 34.5724 112.334 34.5724ZM122.313 24.6169H118.854L122.597 37.1552H125.624L128.086 29.1469L130.743 37.1552H133.724L137.479 24.6169H134.351L132.221 32.4212L129.867 24.6169H126.841L124.499 32.5931L122.313 24.6169Z" fill="black"/>
<path d="M38.5698 17.1387L27.0603 39.6387H16.2495L21.0663 30.3137H20.8501C16.8764 35.4722 10.9474 38.868 2.49951 39.6387V30.4428C2.49951 30.4428 7.90382 30.1235 11.0809 26.7834H2.49951V17.1388H12.144V25.0713L12.3605 25.0704L16.3016 17.1388H23.5955V25.021L23.8119 25.0207L27.9009 17.1387H38.5698ZM101.333 37.1552H104.439V19.3262H101.333V37.1552ZM84.2087 36.9731C84.8837 37.2537 85.5702 37.3941 86.2681 37.3941C87.4209 37.3941 88.4526 37.1135 89.3628 36.5521C90.2729 35.9909 90.9784 35.2172 91.4791 34.2311C91.9797 33.2375 92.2299 32.111 92.2299 30.8519C92.2299 29.5927 91.9721 28.4664 91.4563 27.4727C90.9405 26.4791 90.2237 25.7092 89.3058 25.163C88.3881 24.6093 87.3451 24.3363 86.1769 24.3438C85.4337 24.3438 84.7207 24.488 84.038 24.7762C83.3553 25.0644 82.7865 25.474 82.3313 26.005C82.2962 26.0454 82.2621 26.0862 82.229 26.1275V19.3376H79.1115V37.1552H82.2062L82.2 35.4907C82.28 35.5889 82.3656 35.6847 82.4565 35.7785C82.9495 36.2867 83.5336 36.6849 84.2087 36.9731ZM87.3944 34.0946C86.8862 34.4056 86.3059 34.5611 85.6536 34.5611C85.0088 34.5611 84.4172 34.4017 83.8787 34.0832C83.3401 33.757 82.9116 33.3134 82.5929 32.752C82.2819 32.1907 82.1264 31.5535 82.1264 30.8405C82.1189 30.1275 82.2706 29.4904 82.5816 28.9291C82.9002 28.3602 83.3287 27.9202 83.8673 27.6093C84.4058 27.2907 85.0013 27.1352 85.6536 27.1428C86.3059 27.1352 86.8862 27.2869 87.3944 27.5979C87.9102 27.9013 88.3046 28.3374 88.5777 28.9063C88.8583 29.4676 88.9987 30.1124 88.9987 30.8405C88.9987 31.5687 88.8583 32.2135 88.5777 32.7747C88.3046 33.3361 87.9102 33.776 87.3944 34.0946ZM43.0696 20.4071H46.6195L49.795 32.0041L53.1731 20.4071H56.1313L59.795 31.7713L62.8442 20.4071H66.0982L61.2968 37.1552H58.2362L54.5107 26.0532L51.091 37.1552H47.9962L43.0696 20.4071ZM71.3408 37.4509C70.1043 37.4586 68.9893 37.1854 67.9957 36.6318C67.0095 36.0704 66.2322 35.2929 65.6632 34.2993C65.1019 33.3057 64.8213 32.1717 64.8213 30.8973C64.8213 29.6609 65.1095 28.5422 65.686 27.5409C66.2624 26.5397 67.0437 25.7584 68.0298 25.1971C69.0159 24.6358 70.1157 24.3552 71.3293 24.3552C72.6947 24.3552 73.8893 24.6586 74.9133 25.2654C75.9449 25.8722 76.7148 26.7331 77.223 27.8481C77.7388 28.9556 77.9247 30.2261 77.7805 31.6597H68.0347C68.0619 32.2308 68.2044 32.7504 68.4622 33.2184C68.7504 33.7342 69.1524 34.1362 69.6682 34.4244C70.184 34.7127 70.7604 34.8568 71.3977 34.8568C71.883 34.8492 72.3344 34.7658 72.7515 34.6066C73.1688 34.4397 73.5214 34.2159 73.8097 33.9352C74.1055 33.6546 74.3142 33.3361 74.4355 32.9796H77.6895C77.4923 33.8518 77.0979 34.6293 76.5063 35.3119C75.9145 35.9871 75.1713 36.5142 74.2762 36.8934C73.3812 37.2727 72.4027 37.4586 71.3408 37.4509ZM68.4735 28.5308C68.2918 28.8478 68.1658 29.1891 68.0957 29.5548H74.556C74.5092 29.0928 74.3665 28.6718 74.1283 28.2919C73.8552 27.8443 73.4835 27.4992 73.0133 27.2565C72.543 27.0062 72.012 26.881 71.4204 26.881C70.7908 26.881 70.2182 27.0251 69.7023 27.3134C69.1865 27.6016 68.7769 28.0074 68.4735 28.5308ZM94.5173 24.6169C94.5173 23.6005 94.7485 22.6978 95.2113 21.909C95.6739 21.1125 96.3225 20.4943 97.1569 20.0544C97.9988 19.6069 98.9811 19.3755 100.104 19.3604V22.1251C99.5803 22.1327 99.1328 22.2427 98.7611 22.4551C98.397 22.6599 98.1164 22.9595 97.9191 23.3539C97.7376 23.7171 97.6396 24.138 97.6253 24.6169H100.035V27.2451H97.6234V37.1552H94.5173V27.2451H92.5148V24.6169H94.5173ZM112.334 37.4281C111.068 37.4281 109.934 37.1513 108.932 36.5976C107.939 36.0363 107.157 35.2626 106.589 34.2765C106.027 33.2829 105.747 32.1565 105.747 30.8973C105.747 29.6306 106.027 28.5004 106.589 27.5067C107.157 26.5055 107.939 25.728 108.932 25.1743C109.934 24.6206 111.068 24.3437 112.334 24.3437C113.609 24.3437 114.746 24.6206 115.748 25.1743C116.756 25.728 117.542 26.5017 118.103 27.4954C118.664 28.489 118.949 29.623 118.956 30.8973C118.949 32.1565 118.664 33.2829 118.103 34.2765C117.549 35.2626 116.768 36.0363 115.759 36.5976C114.75 37.1513 113.609 37.4281 112.334 37.4281ZM112.334 34.5724C113.002 34.5724 113.593 34.4206 114.109 34.1173C114.625 33.8063 115.023 33.3739 115.304 32.8201C115.585 32.2589 115.725 31.6179 115.725 30.8973C115.725 30.1691 115.585 29.5244 115.304 28.9631C115.023 28.4018 114.625 27.9694 114.109 27.666C113.593 27.355 113.002 27.1995 112.334 27.1995C111.674 27.1995 111.087 27.355 110.571 27.666C110.063 27.9694 109.668 28.4018 109.387 28.9631C109.107 29.5244 108.97 30.1691 108.978 30.8973C108.978 31.6179 109.118 32.2589 109.399 32.8201C109.687 33.3739 110.081 33.8063 110.582 34.1173C111.09 34.4206 111.674 34.5724 112.334 34.5724ZM122.313 24.6169H118.854L122.597 37.1552H125.624L128.086 29.1469L130.743 37.1552H133.724L137.479 24.6169H134.351L132.221 32.4212L129.867 24.6169H126.841L124.499 32.5931L122.313 24.6169Z" fill="black"/>
<path fill-rule="evenodd" clip-rule="evenodd" d="M38.5698 17.1387L27.0603 39.6387H16.2495L21.0663 30.3137H20.8501C16.8764 35.4722 10.9474 38.868 2.49951 39.6387V30.4428C2.49951 30.4428 7.90382 30.1235 11.0809 26.7834H2.49951V17.1388H12.144V25.0713L12.3605 25.0704L16.3016 17.1388H23.5955V25.021L23.8119 25.0207L27.9009 17.1387H38.5698ZM101.333 37.1552H104.439V19.3262H101.333V37.1552ZM84.2087 36.9731C84.8837 37.2537 85.5702 37.3941 86.2681 37.3941C87.4209 37.3941 88.4526 37.1135 89.3628 36.5521C90.2729 35.9909 90.9784 35.2172 91.4791 34.2311C91.9797 33.2375 92.2299 32.111 92.2299 30.8519C92.2299 29.5927 91.9721 28.4664 91.4563 27.4727C90.9405 26.4791 90.2237 25.7092 89.3058 25.163C88.3881 24.6093 87.3451 24.3363 86.1769 24.3438C85.4337 24.3438 84.7207 24.488 84.038 24.7762C83.3553 25.0644 82.7865 25.474 82.3313 26.005C82.2962 26.0454 82.2621 26.0862 82.229 26.1275V19.3376H79.1115V37.1552H82.2062L82.2 35.4907C82.28 35.5889 82.3656 35.6847 82.4565 35.7785C82.9495 36.2867 83.5336 36.6849 84.2087 36.9731ZM87.3944 34.0946C86.8862 34.4056 86.3059 34.5611 85.6536 34.5611C85.0088 34.5611 84.4172 34.4017 83.8787 34.0832C83.3401 33.757 82.9116 33.3134 82.5929 32.752C82.2819 32.1907 82.1264 31.5535 82.1264 30.8405C82.1189 30.1275 82.2706 29.4904 82.5816 28.9291C82.9002 28.3602 83.3287 27.9202 83.8673 27.6093C84.4058 27.2907 85.0013 27.1352 85.6536 27.1428C86.3059 27.1352 86.8862 27.2869 87.3944 27.5979C87.9102 27.9013 88.3046 28.3374 88.5777 28.9063C88.8583 29.4676 88.9987 30.1124 88.9987 30.8405C88.9987 31.5687 88.8583 32.2135 88.5777 32.7747C88.3046 33.3361 87.9102 33.776 87.3944 34.0946ZM43.0696 20.4071H46.6195L49.795 32.0041L53.1731 20.4071H56.1313L59.795 31.7713L62.8442 20.4071H66.0982L61.2968 37.1552H58.2362L54.5107 26.0532L51.091 37.1552H47.9962L43.0696 20.4071ZM71.3408 37.4509C70.1043 37.4586 68.9893 37.1854 67.9957 36.6318C67.0095 36.0704 66.2322 35.2929 65.6632 34.2993C65.1019 33.3057 64.8213 32.1717 64.8213 30.8973C64.8213 29.6609 65.1095 28.5422 65.686 27.5409C66.2624 26.5397 67.0437 25.7584 68.0298 25.1971C69.0159 24.6358 70.1157 24.3552 71.3293 24.3552C72.6947 24.3552 73.8893 24.6586 74.9133 25.2654C75.9449 25.8722 76.7148 26.7331 77.223 27.8481C77.7388 28.9556 77.9247 30.2261 77.7805 31.6597H68.0347C68.0619 32.2308 68.2044 32.7504 68.4622 33.2184C68.7504 33.7342 69.1524 34.1362 69.6682 34.4244C70.184 34.7127 70.7604 34.8568 71.3977 34.8568C71.883 34.8492 72.3344 34.7658 72.7515 34.6066C73.1688 34.4397 73.5214 34.2159 73.8097 33.9352C74.1055 33.6546 74.3142 33.3361 74.4355 32.9796H77.6895C77.4923 33.8518 77.0979 34.6293 76.5063 35.3119C75.9145 35.9871 75.1713 36.5142 74.2762 36.8934C73.3812 37.2727 72.4027 37.4586 71.3408 37.4509ZM68.4735 28.5308C68.2918 28.8478 68.1658 29.1891 68.0957 29.5548H74.556C74.5092 29.0928 74.3665 28.6718 74.1283 28.2919C73.8552 27.8443 73.4835 27.4992 73.0133 27.2565C72.543 27.0062 72.012 26.881 71.4204 26.881C70.7908 26.881 70.2182 27.0251 69.7023 27.3134C69.1865 27.6016 68.7769 28.0074 68.4735 28.5308ZM94.5173 24.6169C94.5173 23.6005 94.7485 22.6978 95.2113 21.909C95.6739 21.1125 96.3225 20.4943 97.1569 20.0544C97.9988 19.6069 98.9811 19.3755 100.104 19.3604V22.1251C99.5803 22.1327 99.1328 22.2427 98.7611 22.4551C98.397 22.6599 98.1164 22.9595 97.9191 23.3539C97.7376 23.7171 97.6396 24.138 97.6253 24.6169H100.035V27.2451H97.6234V37.1552H94.5173V27.2451H92.5148V24.6169H94.5173ZM112.334 37.4281C111.068 37.4281 109.934 37.1513 108.932 36.5976C107.939 36.0363 107.157 35.2626 106.589 34.2765C106.027 33.2829 105.747 32.1565 105.747 30.8973C105.747 29.6306 106.027 28.5004 106.589 27.5067C107.157 26.5055 107.939 25.728 108.932 25.1743C109.934 24.6206 111.068 24.3437 112.334 24.3437C113.609 24.3437 114.746 24.6206 115.748 25.1743C116.756 25.728 117.542 26.5017 118.103 27.4954C118.664 28.489 118.949 29.623 118.956 30.8973C118.949 32.1565 118.664 33.2829 118.103 34.2765C117.549 35.2626 116.768 36.0363 115.759 36.5976C114.75 37.1513 113.609 37.4281 112.334 37.4281ZM112.334 34.5724C113.002 34.5724 113.593 34.4206 114.109 34.1173C114.625 33.8063 115.023 33.3739 115.304 32.8201C115.585 32.2589 115.725 31.6179 115.725 30.8973C115.725 30.1691 115.585 29.5244 115.304 28.9631C115.023 28.4018 114.625 27.9694 114.109 27.666C113.593 27.355 113.002 27.1995 112.334 27.1995C111.674 27.1995 111.087 27.355 110.571 27.666C110.063 27.9694 109.668 28.4018 109.387 28.9631C109.107 29.5244 108.97 30.1691 108.978 30.8973C108.978 31.6179 109.118 32.2589 109.399 32.8201C109.687 33.3739 110.081 33.8063 110.582 34.1173C111.09 34.4206 111.674 34.5724 112.334 34.5724ZM122.313 24.6169H118.854L122.597 37.1552H125.624L128.086 29.1469L130.743 37.1552H133.724L137.479 24.6169H134.351L132.221 32.4212L129.867 24.6169H126.841L124.499 32.5931L122.313 24.6169Z" fill="black"/>
<path d="M38.5698 17.1387L27.0603 39.6387H16.2495L21.0663 30.3137H20.8501C16.8764 35.4722 10.9474 38.868 2.49951 39.6387V30.4428C2.49951 30.4428 7.90382 30.1235 11.0809 26.7834H2.49951V17.1388H12.144V25.0713L12.3605 25.0704L16.3016 17.1388H23.5955V25.021L23.8119 25.0207L27.9009 17.1387H38.5698ZM101.333 37.1552H104.439V19.3262H101.333V37.1552ZM84.2087 36.9731C84.8837 37.2537 85.5702 37.3941 86.2681 37.3941C87.4209 37.3941 88.4526 37.1135 89.3628 36.5521C90.2729 35.9909 90.9784 35.2172 91.4791 34.2311C91.9797 33.2375 92.2299 32.111 92.2299 30.8519C92.2299 29.5927 91.9721 28.4664 91.4563 27.4727C90.9405 26.4791 90.2237 25.7092 89.3058 25.163C88.3881 24.6093 87.3451 24.3363 86.1769 24.3438C85.4337 24.3438 84.7207 24.488 84.038 24.7762C83.3553 25.0644 82.7865 25.474 82.3313 26.005C82.2962 26.0454 82.2621 26.0862 82.229 26.1275V19.3376H79.1115V37.1552H82.2062L82.2 35.4907C82.28 35.5889 82.3656 35.6847 82.4565 35.7785C82.9495 36.2867 83.5336 36.6849 84.2087 36.9731ZM87.3944 34.0946C86.8862 34.4056 86.3059 34.5611 85.6536 34.5611C85.0088 34.5611 84.4172 34.4017 83.8787 34.0832C83.3401 33.757 82.9116 33.3134 82.5929 32.752C82.2819 32.1907 82.1264 31.5535 82.1264 30.8405C82.1189 30.1275 82.2706 29.4904 82.5816 28.9291C82.9002 28.3602 83.3287 27.9202 83.8673 27.6093C84.4058 27.2907 85.0013 27.1352 85.6536 27.1428C86.3059 27.1352 86.8862 27.2869 87.3944 27.5979C87.9102 27.9013 88.3046 28.3374 88.5777 28.9063C88.8583 29.4676 88.9987 30.1124 88.9987 30.8405C88.9987 31.5687 88.8583 32.2135 88.5777 32.7747C88.3046 33.3361 87.9102 33.776 87.3944 34.0946ZM43.0696 20.4071H46.6195L49.795 32.0041L53.1731 20.4071H56.1313L59.795 31.7713L62.8442 20.4071H66.0982L61.2968 37.1552H58.2362L54.5107 26.0532L51.091 37.1552H47.9962L43.0696 20.4071ZM71.3408 37.4509C70.1043 37.4586 68.9893 37.1854 67.9957 36.6318C67.0095 36.0704 66.2322 35.2929 65.6632 34.2993C65.1019 33.3057 64.8213 32.1717 64.8213 30.8973C64.8213 29.6609 65.1095 28.5422 65.686 27.5409C66.2624 26.5397 67.0437 25.7584 68.0298 25.1971C69.0159 24.6358 70.1157 24.3552 71.3293 24.3552C72.6947 24.3552 73.8893 24.6586 74.9133 25.2654C75.9449 25.8722 76.7148 26.7331 77.223 27.8481C77.7388 28.9556 77.9247 30.2261 77.7805 31.6597H68.0347C68.0619 32.2308 68.2044 32.7504 68.4622 33.2184C68.7504 33.7342 69.1524 34.1362 69.6682 34.4244C70.184 34.7127 70.7604 34.8568 71.3977 34.8568C71.883 34.8492 72.3344 34.7658 72.7515 34.6066C73.1688 34.4397 73.5214 34.2159 73.8097 33.9352C74.1055 33.6546 74.3142 33.3361 74.4355 32.9796H77.6895C77.4923 33.8518 77.0979 34.6293 76.5063 35.3119C75.9145 35.9871 75.1713 36.5142 74.2762 36.8934C73.3812 37.2727 72.4027 37.4586 71.3408 37.4509ZM68.4735 28.5308C68.2918 28.8478 68.1658 29.1891 68.0957 29.5548H74.556C74.5092 29.0928 74.3665 28.6718 74.1283 28.2919C73.8552 27.8443 73.4835 27.4992 73.0133 27.2565C72.543 27.0062 72.012 26.881 71.4204 26.881C70.7908 26.881 70.2182 27.0251 69.7023 27.3134C69.1865 27.6016 68.7769 28.0074 68.4735 28.5308ZM94.5173 24.6169C94.5173 23.6005 94.7485 22.6978 95.2113 21.909C95.6739 21.1125 96.3225 20.4943 97.1569 20.0544C97.9988 19.6069 98.9811 19.3755 100.104 19.3604V22.1251C99.5803 22.1327 99.1328 22.2427 98.7611 22.4551C98.397 22.6599 98.1164 22.9595 97.9191 23.3539C97.7376 23.7171 97.6396 24.138 97.6253 24.6169H100.035V27.2451H97.6234V37.1552H94.5173V27.2451H92.5148V24.6169H94.5173ZM112.334 37.4281C111.068 37.4281 109.934 37.1513 108.932 36.5976C107.939 36.0363 107.157 35.2626 106.589 34.2765C106.027 33.2829 105.747 32.1565 105.747 30.8973C105.747 29.6306 106.027 28.5004 106.589 27.5067C107.157 26.5055 107.939 25.728 108.932 25.1743C109.934 24.6206 111.068 24.3437 112.334 24.3437C113.609 24.3437 114.746 24.6206 115.748 25.1743C116.756 25.728 117.542 26.5017 118.103 27.4954C118.664 28.489 118.949 29.623 118.956 30.8973C118.949 32.1565 118.664 33.2829 118.103 34.2765C117.549 35.2626 116.768 36.0363 115.759 36.5976C114.75 37.1513 113.609 37.4281 112.334 37.4281ZM112.334 34.5724C113.002 34.5724 113.593 34.4206 114.109 34.1173C114.625 33.8063 115.023 33.3739 115.304 32.8201C115.585 32.2589 115.725 31.6179 115.725 30.8973C115.725 30.1691 115.585 29.5244 115.304 28.9631C115.023 28.4018 114.625 27.9694 114.109 27.666C113.593 27.355 113.002 27.1995 112.334 27.1995C111.674 27.1995 111.087 27.355 110.571 27.666C110.063 27.9694 109.668 28.4018 109.387 28.9631C109.107 29.5244 108.97 30.1691 108.978 30.8973C108.978 31.6179 109.118 32.2589 109.399 32.8201C109.687 33.3739 110.081 33.8063 110.582 34.1173C111.09 34.4206 111.674 34.5724 112.334 34.5724ZM122.313 24.6169H118.854L122.597 37.1552H125.624L128.086 29.1469L130.743 37.1552H133.724L137.479 24.6169H134.351L132.221 32.4212L129.867 24.6169H126.841L124.499 32.5931L122.313 24.6169Z" fill="black"/>
</svg>
